<?xml version="1.0" encoding="UTF-8" standalone="no"?>
<!-- Generator: Adobe Illustrator 13.0.0, SVG Export Plug-In . SVG Version: 6.00 Build 14948)  -->

<svg
   xmlns:dc="http://purl.org/dc/elements/1.1/"
   xmlns:cc="http://creativecommons.org/ns#"
   xmlns:rdf="http://www.w3.org/1999/02/22-rdf-syntax-ns#"
   xmlns:svg="http://www.w3.org/2000/svg"
   xmlns="http://www.w3.org/2000/svg"
   xmlns:sodipodi="http://sodipodi.sourceforge.net/DTD/sodipodi-0.dtd"
   xmlns:inkscape="http://www.inkscape.org/namespaces/inkscape"
   sodipodi:docname="The_Body_Shop_logo.svg"
   inkscape:version="0.48.2 r9819"
   xml:space="preserve"
   enable-background="new 0 0 300 300"
   viewBox="0 0 300 300"
   height="300px"
   width="300px"
   y="0px"
   x="0px"
   id="Layer_1"
   version="1.1"><sodipodi:namedview
   pagecolor="#ffffff"
   bordercolor="#666666"
   borderopacity="1"
   objecttolerance="10"
   gridtolerance="10"
   guidetolerance="10"
   inkscape:pageopacity="0"
   inkscape:pageshadow="2"
   inkscape:window-width="1366"
   inkscape:window-height="705"
   id="namedview3065"
   showgrid="false"
   inkscape:zoom="1.6"
   inkscape:cx="150"
   inkscape:cy="150"
   inkscape:window-x="-4"
   inkscape:window-y="-4"
   inkscape:window-maximized="1"
   inkscape:current-layer="Layer_1" /><metadata
   id="metadata3069"><rdf:RDF><cc:Work
       rdf:about=""><dc:format>image/svg+xml</dc:format><dc:type
         rdf:resource="http://purl.org/dc/dcmitype/StillImage" /></cc:Work></rdf:RDF></metadata><defs
   id="defs3067" />
<g
   id="g3029">
	<g
   id="g3031">
		<path
   id="path3033"
   d="M91.313,161.905c4.579-1.154,7.449-4.594,7.449-9.165c0-6.992-6.287-9.935-12.649-9.935H70.818v40.368    h14.441c7.607,0,15.373-2.796,15.373-11.492C100.632,166.563,97.219,162.521,91.313,161.905 M77.66,148.697h6.049    c3.568,0,7.92,0.626,7.92,5.287c0,4.194-3.572,5.432-6.992,5.432H77.66V148.697z M84.637,177.271H77.66v-11.948h7.29    c4.04,0,8.852,0.306,8.852,5.74C93.802,176.185,88.827,177.271,84.637,177.271z"
   fill="#002b21" />
		<path
   id="path3035"
   d="M85.942,203.984c0-1.346,0.671-2.437,1.776-3.217c1.305-0.943,3.323-1.452,4.915-1.452    c3.707,0,6.057,0.592,8.999,1.836v-6.521c-2.931-1.12-5.258-1.671-8.98-1.671c-3.002,0-6.838,1.064-9.263,2.976    c-2.576,2.049-4.277,4.986-4.277,8.354c0,12.888,18.337,9.165,18.337,17.081c0,1.445-0.701,2.75-1.761,3.647    c-1.218,1.049-3.327,1.634-5.408,1.634c-3.87,0-7.607-1.336-10.557-3.508v6.932c3.206,2.032,7.155,2.708,11.19,2.708    c2.855,0,6.144-0.845,8.437-2.437c2.919-2.048,4.934-5.224,4.934-8.977C104.283,207.862,85.942,211.128,85.942,203.984"
   fill="#002b21" />
		<polyline
   id="polyline3037"
   points="129.545,98.396 102.288,98.396 102.288,103.981 112.927,103.981 112.927,132.551     118.984,132.551 118.984,103.981 129.545,103.981 129.545,98.396   "
   fill="#002b21" />
		<polyline
   id="polyline3039"
   points="143.779,193.729 136.938,193.729 136.938,208.947 119.237,208.947 119.237,193.729     112.403,193.729 112.403,231.929 119.237,231.929 119.237,215.159 136.938,215.159 136.938,231.929 143.779,231.929     143.779,193.729   "
   fill="#002b21" />
		<path
   id="path3041"
   d="M129.285,141.871c-12.736,0-21.592,8.852-21.592,21.43c0,12.57,9.011,20.8,21.592,20.8    c12.575,0,21.582-8.542,21.582-21.116C150.866,150.1,142.172,141.871,129.285,141.871 M129.285,177.886    c-8.852,0-14.14-6.823-14.14-15.212c0-8.222,5.748-14.591,14.14-14.591c8.535,0,14.129,6.37,14.129,14.591    C143.414,171.063,138.133,177.886,129.285,177.886z"
   fill="#002b21" />
		<polyline
   id="polyline3043"
   points="163.086,98.396 157.033,98.396 157.033,112.056 141.037,112.056 141.037,98.396 134.987,98.396     134.987,132.551 141.037,132.551 141.037,117.336 157.033,117.336 157.033,132.551 163.086,132.551 163.086,98.396   "
   fill="#002b21" />
		<path
   id="path3045"
   d="M171.24,192.802c-11.953,0-20.189,8.23-20.189,20.186c0,11.96,8.388,19.873,20.189,19.873    c11.797,0,20.49-8.075,20.49-19.873C191.73,200.722,183.357,192.802,171.24,192.802 M171.24,226.652    c-8.078,0-13.039-6.213-13.039-13.981c0-7.604,5.277-13.657,13.039-13.657s13.354,6.053,13.354,13.657    C184.595,220.439,179.308,226.652,171.24,226.652z"
   fill="#002b21" />
		<path
   id="path3047"
   d="M187.291,145.559c-3.146-1.784-7.667-2.753-11.97-2.753h-15.279v40.368h14.192    c4.235,0,9.06-0.955,12.416-2.849c5.997-3.379,10.036-9.564,10.036-17.341C196.687,155.015,193.146,148.882,187.291,145.559     M184.384,173.759c-3.111,2.233-7.03,3.206-11.53,3.206h-5.672v-27.947h7c4.729,0,8.377,1.116,11.164,3.56    c2.595,2.277,4.035,5.691,4.035,10.406C189.381,168.03,187.484,171.53,184.384,173.759z"
   fill="#002b21" />
		<polyline
   id="polyline3049"
   points="195.382,126.965 177.987,126.965 177.987,117.646 193.515,117.646 193.515,112.366     177.987,112.366 177.987,103.981 194.446,103.981 194.446,98.396 171.938,98.396 171.938,132.551 195.382,132.551     195.382,126.965   "
   fill="#002b21" />
		<polyline
   id="polyline3051"
   points="228.707,142.806 218.61,159.254 208.212,142.806 199.666,142.806 214.726,165.778     214.726,183.174 221.873,183.174 221.873,165.778 236.933,142.806 228.707,142.806   "
   fill="#002b21" />
		<path
   id="path3053"
   d="M212.267,193.729h-12.812v38.199h6.827v-14.8h4.333c3.851,0,7.223-0.498,10.142-1.826    c3.21-1.479,5.624-4.744,5.624-10.069C226.381,196.837,219.564,193.729,212.267,193.729 M215.971,210.766    c-1.346,0.619-3.107,0.853-4.632,0.853h-5.057v-12.08h4.974c2.071,0,3.817,0.057,5.254,0.735c1.697,0.811,2.817,2.512,2.817,5.035    C219.327,208.141,217.909,209.887,215.971,210.766z"
   fill="#002b21" />
		<path
   id="path3055"
   d="M104.66,54.468c-2.606,0-5.718,0.973-8.644,2.564c-2.833,1.531-5.575,3.19-8.249,4.997    c-29.227,19.771-49.182,53.994-49.182,90.548c0,0.777,0.468,1.558,1.245,1.558c0.773,0,1.392-0.623,1.55-1.241    c1.244-4.5,2.485-8.852,4.04-13.355c6.83-18.632,16.923-33.076,30.12-44.569c9.157-8.067,19.725-14.279,31.84-19.865    c4.182-1.874,7.452-5.94,7.452-10.685C114.832,58.519,110.563,54.468,104.66,54.468"
   fill="#002b21" />
		<path
   id="path3057"
   d="M185.319,64.421c0,4.745,3.27,8.811,7.453,10.685c12.113,5.586,22.675,11.797,31.832,19.865    c13.199,11.493,23.296,25.937,30.127,44.569c1.554,4.503,2.787,8.855,4.039,13.355c0.15,0.618,0.773,1.241,1.55,1.241    c0.777,0,1.245-0.78,1.245-1.558c0-36.554-19.967-70.777-49.185-90.548c-2.679-1.807-5.421-3.466-8.26-4.997    c-2.924-1.592-6.035-2.564-8.638-2.564C189.581,54.468,185.319,58.519,185.319,64.421"
   fill="#002b21" />
		<path
   id="path3059"
   d="M150.07,276.339c-68.013,0-122.968-55.276-122.968-123.285c0-43.17,22.354-82.345,59.308-104.714    c8.535-5.046,14.803-7.875,24.089-11.647c3.828-1.554,8.818-3.7,11.312-5.861c2.27-1.973,3.473-4.88,3.473-7.905    c0-2.783-0.962-5.084-2.587-6.744c-1.935-1.969-4.809-3.036-8.127-3.036c-4.19,0-9.674,1.494-16.67,4.439    c-52.64,22.045-87.259,71.335-87.259,129.871c0,77.019,62.419,139.435,139.431,139.435c77.019,0,139.443-62.416,139.443-139.435    c0-58.535-34.623-107.826-87.263-129.871c-6.989-2.946-12.483-4.439-16.675-4.439c-3.318,0-6.192,1.067-8.119,3.036    c-1.634,1.66-2.595,3.96-2.595,6.744c0,3.025,1.198,5.933,3.473,7.905c2.493,2.161,7.483,4.307,11.312,5.861    c9.286,3.772,15.554,6.601,24.089,11.647c36.961,22.369,59.312,61.544,59.312,104.714    C273.046,221.063,218.087,276.339,150.07,276.339"
   fill="#002b21" />
		<polyline
   id="polyline3061"
   points="247.535,286.657 246.109,286.657 246.109,276.346 243.201,276.346 243.201,275.083     250.454,275.083 250.454,276.346 247.535,276.346 247.535,286.657   "
   fill="#002b21" />
		<polyline
   id="polyline3063"
   points="251.556,275.083 253.954,275.083 256.277,284.277 256.3,284.277 258.639,275.083     261.033,275.083 261.033,286.657 259.601,286.657 259.601,276.554 259.574,276.554 257.013,286.657 255.588,286.657     253.012,276.554 252.985,276.554 252.985,286.657 251.556,286.657 251.556,275.083   "
   fill="#002b21" />
	</g>
</g>
</svg>